<?xml version="1.0" encoding="UTF-8" standalone="no"?>
<!DOCTYPE svg PUBLIC "-//W3C//DTD SVG 1.1//EN" "http://www.w3.org/Graphics/SVG/1.1/DTD/svg11.dtd">
<svg width="100%" height="100%" viewBox="0 0 100 100" version="1.1" xmlns="http://www.w3.org/2000/svg" xmlns:xlink="http://www.w3.org/1999/xlink" xml:space="preserve" xmlns:serif="http://www.serif.com/" style="fill-rule:evenodd;clip-rule:evenodd;stroke-linejoin:round;stroke-miterlimit:2;">
    <g id="compensation_plan" transform="matrix(0.232582,0,0,0.232582,50,50)">
        <g id="compensation">
            <g id="compensation_plan1" serif:id="compensation_plan" transform="matrix(1,0,0,1,-208.333333,-208.333333)">
                <g transform="matrix(0.416667,0,0,0.416667,0,0)">
                    <path d="M730,200L410,200C377,200 350,227 350,260L350,270C350,276 354,280 360,280L650,280C683,280 710,307 710,340L710,650C710,656 714,660 720,660L730,660C763,660 790,633 790,600L790,260C790,227 763,200 730,200ZM590,340L270,340C237,340 210,367 210,400L210,740C210,773 237,800 270,800L590,800C623,800 650,773 650,740L650,400C650,367 623,340 590,340ZM350,700C350,711 341,720 330,720L310,720C299,720 290,711 290,700L290,680C290,669 299,660 310,660L330,660C341,660 350,669 350,680L350,700ZM350,580C350,591 341,600 330,600L310,600C299,600 290,591 290,580L290,560C290,549 299,540 310,540L330,540C341,540 350,549 350,560L350,580ZM350,460C350,471 341,480 330,480L310,480C299,480 290,471 290,460L290,440C290,429 299,420 310,420L330,420C341,420 350,429 350,440L350,460ZM570,700C570,711 561,720 550,720L412,720C401,720 392,711 392,700L392,680C392,669 401,660 412,660L550,660C561,660 570,669 570,680L570,700ZM570,580C570,591 561,600 550,600L412,600C401,600 392,591 392,580L392,560C392,549 401,540 412,540L550,540C561,540 570,549 570,560L570,580ZM570,460C570,471 561,480 550,480L412,480C401,480 392,471 392,460L392,440C392,429 401,420 412,420L550,420C561,420 570,429 570,440L570,460Z" style="fill:white;fill-rule:nonzero;"/>
                </g>
            </g>
            <g id="compensation_plan2" serif:id="compensation_plan">
            </g>
        </g>
    </g>
</svg>
