<?xml version="1.0" encoding="UTF-8" standalone="no"?>
<!DOCTYPE svg PUBLIC "-//W3C//DTD SVG 1.1//EN" "http://www.w3.org/Graphics/SVG/1.1/DTD/svg11.dtd">
<svg width="100%" height="100%" viewBox="0 0 100 100" version="1.1" xmlns="http://www.w3.org/2000/svg" xmlns:xlink="http://www.w3.org/1999/xlink" xml:space="preserve" xmlns:serif="http://www.serif.com/" style="fill-rule:evenodd;clip-rule:evenodd;stroke-linejoin:round;stroke-miterlimit:2;">
    <g id="compensation">
    </g>
    <g id="pay_batch" transform="matrix(0.227753,0,0,0.227753,52.551561,49.013024)">
        <g transform="matrix(1,0,0,1,-208.333333,-208.333333)">
            <g transform="matrix(0.416667,0,0,0.416667,0,0)">
                <path d="M710,200L237,200C233,200 228,202 225,205C222,209 220,213 220,218L220,277C220,282 222,286 225,290C228,293 233,295 237,295L710,295C714,295 718,293 722,290C726,287 727,282 727,277L727,218C727,213 725,209 722,205C718,202 714,200 710,200ZM341,342L237,342C233,342 229,344 225,348C222,351 220,355 220,360L220,396C219.98,396.333 219.971,396.666 219.971,397C219.971,406.326 227.645,414 236.971,414C236.98,414 236.99,414 237,414L341,413C346,413 350,411 353,408C356,405 358,400 358,396L358,360C358,355 356,351 353,348C350,345 346,343 341,342ZM525,342L422,342C417,342 413,344 410,348C406,351 405,355 404,360L404,396C405,400 406,405 410,408C414,411 417,413 422,413L525,413C530,413 534,411 537,408C541,405 543,400 543,396L543,360C543,355 541,351 537,348C534,344 530,342 525,342ZM710,342L606,342C601,342 597,344 594,348C591,352 589,355 589,360L589,396C589,400 591,405 594,408C597,411 601,413 606,413L710,413C714,413 719,411 722,408C725,405 727,400 727,396L727,360C727.015,350.492 719.493,342.528 710,342ZM341,461L237,461C233,461 229,463 225,466C222,469 220,474 220,479L220,514C220,519 222,523 225,527C229,530 233,532 237,532L341,532C346,532 350,530 353,526C356,523 358,519 358,514L358,478C358.015,468.492 350.493,460.528 341,460L341,461ZM525,461C521,461 525,461 525,461ZM526,461L422,461C417,461 413,463 410,466C407,469 405,474 405,479L405,514C405,519 407,523 410,527C413,530 417,532 422,532L525,532C530,532 534,530 538,526C541,523 543,519 543,514L543,479C543.02,478.667 543.029,478.334 543.029,478C543.029,468.674 535.355,461 526.029,461C526.02,461 526.01,461 526,461ZM710,461L606,461C601,461 597,463 594,466C591,469 589,474 589,479L589,514C589,519 591,523 594,527C597,530 604,533 606,532L607,532C611,530 631,521 660,521C685,521 700,528 707,531L710,532C713,533 719,530 722,527C725,523 727,519 727,514L727,479C727,474 725,470 722,466C719,463 715,461 710,461ZM341,579L238,579C233,579 229,581 225,585C222,588 220,592 220,597L220,633C219.98,633.333 219.971,633.666 219.971,634C219.971,643.326 227.645,651 236.971,651C236.98,651 236.99,651 237,651L341,650C346,650 350,648 353,645C357,642 358,637 359,633L359,597C358,592 357,588 353,585C350,581 346,580 341,579ZM341,698L238,698C233,698 229,700 225,703C222,706 220,711 220,715L220,751C220,756 222,760 225,764C229,767 233,769 238,769L341,769C346,769 350,767 353,763C357,760 358,756 359,751L359,715C358,711 357,706 353,703C350,700 346,698 341,698ZM422,579C417,579 413,581 410,585C407,588 405,592 405,597L405,633C404.98,633.333 404.971,633.666 404.971,634C404.971,643.326 412.645,651 421.971,651C421.98,651 421.99,651 422,651L504,650C504,650 505,634 515,614C520,603 527,595 531,591C535,586 537,584 536,583C532,579 530,579 525,579L422,579ZM410,764C413,767 417,769 422,769L526,769C530,769 532,767 535,764L536,763C537,762 535,760 532,757C528,753 521,746 515,734C505,714 504,698 504,698L422,698C417,698 413,700 410,703C407,706 405,711 405,715L405,751C405,756 407,760 410,763L410,764ZM673,672L675,678L705,706C707,707 708,709 708,711L705,717L694,729L692,730L689,731C687.134,731.027 685.333,730.306 684,729L646,690L643,684L643,622L645,616L651,614L666,614C670.389,614 674,617.611 674,622L674,672L673,672ZM611,561C657.47,541.199 711.618,551.95 747,588C770.039,611.218 782.98,642.633 782.98,675.341C782.98,743.366 727.004,799.341 658.98,799.341C590.956,799.341 534.98,743.366 534.98,675.341C534.98,625.495 565.036,580.287 611,561ZM607,753C622.377,763.317 640.482,768.829 659,768.829C710.199,768.829 752.329,726.699 752.329,675.5C752.329,644.423 736.806,615.315 711,598C695.623,587.683 677.518,582.171 659,582.171C607.801,582.171 565.671,624.301 565.671,675.5C565.671,706.577 581.194,735.685 607,753Z" style="fill:white;fill-rule:nonzero;"/>
            </g>
        </g>
    </g>
</svg>
