<?xml version="1.0" encoding="UTF-8" standalone="no"?>
<!DOCTYPE svg PUBLIC "-//W3C//DTD SVG 1.1//EN" "http://www.w3.org/Graphics/SVG/1.1/DTD/svg11.dtd">
<svg width="100%" height="100%" viewBox="0 0 100 100" version="1.1" xmlns="http://www.w3.org/2000/svg" xmlns:xlink="http://www.w3.org/1999/xlink" xml:space="preserve" xmlns:serif="http://www.serif.com/" style="fill-rule:evenodd;clip-rule:evenodd;stroke-linejoin:round;stroke-miterlimit:2;">
    <g id="compensation">
    </g>
    <g id="pay_statement" transform="matrix(0.23403,0,0,0.23403,51.792966,51.243775)">
        <g transform="matrix(1,0,0,1,-208.333333,-208.333333)">
            <g transform="matrix(0.416667,0,0,0.416667,0,0)">
                <path d="M680,202L237,202C233,202 229,204 225,207C222,210 221,214 221,219L221,274C221,279 222,283 225,286C228,289 233,291 237,291L680,291C684,291 688,289 691,286C694,283 696,279 696,274L696,219C696,215 694,210 691,207C688,204 684,202 680,202ZM334,336L237,336C233,336 229,337 225,341C222,344 221,348 221,352L221,385C221,390 222,394 225,397C228,400 233,402 237,402L334,402C338,402 342,400 345,397C348,394 350,390 350,386L350,352C350,348 348,344 345,341C342,337 338,336 334,336ZM507,336L410,336C405,336 401,337 398,341C395,344 393,348 393,352L393,385C393,390 395,394 398,397C401,400 405,402 410,402L507,402C511,402 515,400 518,397C521,394 523,390 523,385L523,352C523,348 521,344 518,340C515,337 511,336 507,336ZM680,336L582,336C578,336 574,337 571,341C568,344 566,348 566,352L566,385C566,390 568,394 571,397C574,400 578,402 582,402L680,402C684,402 688,400 691,397C694,394 696,390 696,386L696,352C696,348 694,344 691,340C688,337 684,336 680,336ZM334,447L237,447C233,447 228,449 225,452C222,455 221,459 221,463L221,497C221,501 222,505 225,508C228,511 233,513 237,513L334,513C338,513 342,511 345,508C348,505 350,501 350,497L350,463C350,459 348,455 345,452C342,449 338,447 334,447ZM507,447L410,447C405,447 401,449 398,452C395,455 393,459 393,463L393,497C393,501 395,505 398,508C401,511 405,513 410,513L507,513C511,513 515,511 518,508C521,505 523,501 523,497L523,463C523,459 521,455 518,452C515,448 511,447 507,447ZM680,447L582,447C578,447 574,449 571,452C568,455 566,459 566,463L566,497C566,501 568,505 571,508C574,511 578,513 582,513L680,513C684,513 688,511 691,508C694,505 696,501 696,497L696,463C696,459 694,455 691,452C688,449 684,447 680,447ZM334,558L237,558C233,558 229,560 225,563C222,566 221,570 221,574L221,608C221,612 222,616 225,619C228,623 233,624 237,624L334,624C338,624 342,623 345,619C348,616 350,612 350,608L350,575C350,570 348,566 345,563C342,560 338,558 334,558ZM334,669L237,669C233,669 229,671 226,674C223,677 221,681 221,685L221,719C221,723 223,727 226,731C229,734 233,735 237,736L334,736C338,735 342,734 345,731C348,727 350,723 350,719L350,686C350,681 348,677 345,674C342,671 338,669 334,669ZM743,554L428,554C408,554 392,570 392,590L392,766C392,786 408,802 428,802L743,802C763,802 779,786 779,766L779,590C779,570 763,554 743,554ZM470,766C470,742 452,723 428,723L428,633C452,633 470,614 470,590L700,590C700,614 719,633 743,633L743,723C719,723 700,742 700,766L470,766ZM646,675C646,708.464 618.464,736 585,736C551.536,736 524,708.464 524,675C524,641.536 551.536,614 585,614C618.464,614 646,641.536 646,675Z" style="fill:white;fill-rule:nonzero;"/>
            </g>
        </g>
    </g>
</svg>
